<svg width="30" height="30" viewBox="0 0 30 30" fill="none" xmlns="http://www.w3.org/2000/svg">
<path d="M7.5 2.5C7.5 3.14125 8.1125 3.75 8.75 3.75H21.25C21.8913 3.75 22.5 3.1375 22.5 2.5H25C25 4.57125 23.3212 6.25 21.25 6.25H16.25L16.2513 8.8275C21.1838 9.44375 25 13.6512 25 18.75V26.25C25 26.94 24.44 27.5 23.75 27.5H6.25C5.56 27.5 5 26.94 5 26.25V18.75C5 13.65 8.8175 9.4425 13.75 8.8275V6.25H8.75C6.675 6.25 5 4.575 5 2.5H7.5ZM15 13.75C12.2375 13.75 10 15.9875 10 18.75C10 21.5125 12.2375 23.75 15 23.75C17.7625 23.75 20 21.5125 20 18.75C20 17.8225 19.7475 16.955 19.3075 16.21L15.8837 19.635L15.7662 19.7375C15.2762 20.1187 14.5662 20.085 14.1163 19.6337C13.6287 19.1462 13.6287 18.3538 14.1163 17.8663L17.54 14.4413C16.795 14.0038 15.9275 13.75 15 13.75Z" fill="#000"/>
</svg>
