<svg width="199" height="29" viewBox="0 0 199 29" fill="none" xmlns="http://www.w3.org/2000/svg">
<path fill-rule="evenodd" clip-rule="evenodd" d="M25.6544 24.737V13.2406H13.983V17.4246H20.9939V22.5735C20.158 23.2057 19.1728 23.7076 18.0365 24.0922C16.9006 24.4707 15.68 24.6594 14.3747 24.6594C12.9646 24.6594 11.6916 24.4113 10.5557 23.916C9.4198 23.4207 8.44118 22.7301 7.61793 21.8572C6.79563 20.9834 6.16287 19.9474 5.71872 18.7409C5.27457 17.5423 5.05319 16.2321 5.05319 14.8242C5.05319 13.4948 5.28159 12.2369 5.73791 11.064C6.19516 9.88412 6.82184 8.85424 7.61793 7.96734C8.4145 7.08138 9.35428 6.3772 10.4382 5.86927C11.5217 5.36087 12.6903 5.10667 13.9437 5.10667C14.8058 5.10667 15.5953 5.17863 16.3137 5.32161C17.0312 5.46507 17.6911 5.66086 18.2916 5.90805C18.8916 6.15571 19.4663 6.46271 20.0148 6.82718C20.5629 7.19213 21.0983 7.59632 21.6206 8.03977L24.6753 4.40248C23.971 3.80343 23.246 3.27541 22.5019 2.81888C21.7577 2.36282 20.9682 1.97824 20.1323 1.66517C19.2969 1.35256 18.3894 1.11144 17.4103 0.941817C16.4307 0.772662 15.3407 0.687622 14.1393 0.687622C12.0767 0.687622 10.1775 1.06565 8.44118 1.82171C6.70389 2.57776 5.20904 3.6011 3.95616 4.89172C2.70281 6.18187 1.73026 7.68745 1.03853 9.40796C0.345866 11.1289 0 12.9537 0 14.8831C0 16.8905 0.339781 18.7545 1.01841 20.4754C1.6975 22.196 2.65694 23.688 3.89766 24.9529C5.13791 26.2174 6.63276 27.2075 8.38221 27.9243C10.1317 28.6416 12.0767 29 14.2179 29C15.4189 29 16.5683 28.8888 17.6644 28.6678C18.7615 28.4463 19.7864 28.1397 20.7388 27.7486C21.6927 27.3575 22.58 26.901 23.4028 26.38C24.2251 25.8585 24.9758 25.3108 25.6544 24.737ZM54.2761 0.961917H49.8112L37.7476 28.5308H42.6828L45.5031 21.9221H58.4672L61.2486 28.5308H66.3402L54.2761 0.961917ZM56.7051 17.6596H47.2656L51.966 6.7099L56.7051 17.6596ZM102.482 28.5308L95.0793 18.168C96.0453 17.9068 96.9266 17.5353 97.7232 17.0531C98.5197 16.5709 99.2049 15.984 99.7796 15.2933C100.354 14.6027 100.805 13.8079 101.131 12.9083C101.457 12.0088 101.62 10.9855 101.62 9.83832C101.62 8.50845 101.385 7.30288 100.916 6.2216C100.445 5.13938 99.7731 4.22678 98.8984 3.48381C98.0236 2.74037 96.9528 2.16749 95.6864 1.7633C94.4199 1.3591 93.0037 1.15724 91.4368 1.15724H79.2168V28.5308H83.9948V18.989H90.0463L96.803 28.5308H102.482ZM96.7244 10.0925C96.7244 11.507 96.2152 12.6345 95.1903 13.4691C94.1723 14.3092 92.7945 14.7265 91.0647 14.7265H83.9948V5.49731H91.0254C92.8338 5.49731 94.2374 5.88188 95.2296 6.65803C96.2283 7.42717 96.7244 8.57387 96.7244 10.0925ZM140.503 14.805C140.503 12.8756 140.151 11.0766 139.447 9.40796C138.741 7.73978 137.742 6.29262 136.45 5.06788C135.157 3.84221 133.617 2.88383 131.828 2.19319C130.04 1.50255 128.074 1.15724 125.933 1.15724H115.711V28.5308H125.933C128.074 28.5308 130.04 28.1785 131.828 27.4748C133.617 26.7711 135.157 25.8061 136.45 24.5814C137.742 23.3557 138.741 21.9025 139.447 20.2208C140.151 18.5395 140.503 16.7339 140.503 14.805ZM135.451 14.8831C135.451 16.2452 135.223 17.4965 134.765 18.6306C134.309 19.7713 133.662 20.7553 132.84 21.5763C132.017 22.4044 131.012 23.0431 129.837 23.5057C128.656 23.9618 127.35 24.1898 125.907 24.1898H120.489V5.49731H125.907C127.35 5.49731 128.656 5.73236 129.837 6.2015C131.012 6.67719 132.017 7.32951 132.84 8.16967C133.662 9.00423 134.309 9.99486 134.765 11.1355C135.223 12.2696 135.451 13.5209 135.451 14.8831ZM154.791 28.5308H159.569V1.15724H154.791V28.5308ZM194.222 20.0839L179.567 1.15724H175.109V28.5308H179.887V9.0561L194.972 28.5308H199V1.15724H194.222V20.0839Z" fill="#F2F2F7"/>
</svg>
