<svg width="27" height="5" viewBox="0 0 27 5" fill="none" xmlns="http://www.w3.org/2000/svg">
<path fill-rule="evenodd" clip-rule="evenodd" d="M3.48075 3.65207V2.03977H1.89719V2.62655H2.84842V3.34866C2.73501 3.43732 2.60134 3.50771 2.44716 3.56164C2.29305 3.61472 2.12744 3.6412 1.95034 3.6412C1.75901 3.6412 1.58629 3.6064 1.43218 3.53693C1.27806 3.46747 1.14529 3.37061 1.03359 3.2482C0.92202 3.12565 0.836168 2.98036 0.775906 2.81116C0.715645 2.64307 0.685609 2.45931 0.685609 2.26186C0.685609 2.07542 0.716597 1.89901 0.77851 1.73452C0.840549 1.56905 0.925576 1.42461 1.03359 1.30023C1.14167 1.17598 1.26917 1.07722 1.41624 1.00599C1.56324 0.934691 1.7218 0.899041 1.89185 0.899041C2.00882 0.899041 2.11595 0.909132 2.21342 0.929185C2.31076 0.949304 2.4003 0.976763 2.48177 1.01143C2.56318 1.04616 2.64115 1.08922 2.71558 1.14033C2.78993 1.19151 2.86258 1.2482 2.93344 1.31039L3.34791 0.800283C3.25234 0.71627 3.15398 0.642218 3.05302 0.578192C2.95205 0.514232 2.84493 0.460298 2.73151 0.416391C2.61817 0.37255 2.49504 0.338735 2.3622 0.314946C2.22929 0.291223 2.0814 0.279297 1.9184 0.279297C1.63855 0.279297 1.38087 0.332313 1.14529 0.438345C0.909574 0.544377 0.706755 0.687894 0.536765 0.868895C0.366712 1.04983 0.234759 1.26098 0.140906 1.50227C0.0469265 1.74363 0 1.99953 0 2.27012C0 2.55165 0.046101 2.81306 0.138176 3.05442C0.230314 3.29571 0.360489 3.50495 0.528828 3.68235C0.697103 3.85968 0.899922 3.99855 1.13728 4.09908C1.37465 4.19967 1.63855 4.24993 1.92907 4.24993C2.09201 4.24993 2.24796 4.23434 2.39668 4.20334C2.54552 4.17228 2.68459 4.12929 2.81381 4.07443C2.94322 4.01958 3.06362 3.95556 3.17525 3.88249C3.28682 3.80935 3.38868 3.73255 3.48075 3.65207ZM7.36409 0.317765H6.7583L5.12153 4.18414H5.79113L6.17379 3.25731H7.93273L8.31012 4.18414H9.00093L7.36409 0.317765ZM7.69366 2.65951H6.41293L7.05066 1.12388L7.69366 2.65951ZM13.9046 4.18414L12.9002 2.73081C13.0313 2.69418 13.1508 2.64208 13.2589 2.57445C13.367 2.50682 13.46 2.42451 13.5379 2.32766C13.6159 2.2308 13.677 2.11933 13.7213 1.99318C13.7655 1.86703 13.7877 1.72351 13.7877 1.56263C13.7877 1.37612 13.7558 1.20705 13.6921 1.0554C13.6282 0.903628 13.5371 0.775642 13.4184 0.671445C13.2997 0.567182 13.1544 0.486839 12.9826 0.430154C12.8107 0.373468 12.6186 0.345158 12.406 0.345158H10.748V4.18414H11.3963V2.84596H12.2173L13.1341 4.18414H13.9046ZM13.1234 1.59828C13.1234 1.79664 13.0543 1.95477 12.9153 2.07182C12.7771 2.18964 12.5902 2.24816 12.3555 2.24816H11.3963V0.953826H12.3502C12.5955 0.953826 12.786 1.00776 12.9206 1.11661C13.0561 1.22448 13.1234 1.38529 13.1234 1.59828ZM19.0633 2.25918C19.0633 1.98859 19.0154 1.73629 18.9199 1.50227C18.8242 1.26832 18.6886 1.06536 18.5133 0.893601C18.3379 0.721709 18.1289 0.587301 17.8862 0.490444C17.6436 0.393586 17.3769 0.345158 17.0864 0.345158H15.6995V4.18414H17.0864C17.3769 4.18414 17.6436 4.13472 17.8862 4.03603C18.1289 3.93734 18.3379 3.80201 18.5133 3.63025C18.6886 3.45836 18.8242 3.25455 18.9199 3.0187C19.0154 2.78291 19.0633 2.52969 19.0633 2.25918ZM18.3778 2.27012C18.3778 2.46115 18.3469 2.63664 18.2848 2.79569C18.2228 2.95566 18.1351 3.09367 18.0235 3.20881C17.9119 3.32494 17.7755 3.41452 17.6161 3.4794C17.4558 3.54336 17.2786 3.57534 17.0829 3.57534H16.3477V0.953826H17.0829C17.2786 0.953826 17.4558 0.98679 17.6161 1.05258C17.7755 1.1193 17.9119 1.21078 18.0235 1.32861C18.1351 1.44565 18.2228 1.58458 18.2848 1.74455C18.3469 1.90359 18.3778 2.07909 18.3778 2.27012ZM21.0017 4.18414H21.65V0.345158H21.0017V4.18414ZM26.3517 2.9995L24.3634 0.345158H23.7585V4.18414H24.4067V1.45292L26.4535 4.18414H27V0.345158H26.3517V2.9995Z" fill="white"/>
</svg>
