<svg width="60" height="38" viewBox="0 0 60 38" fill="none" xmlns="http://www.w3.org/2000/svg">
<path fill-rule="evenodd" clip-rule="evenodd" d="M26.6731 17.3767C23.486 13.5277 26.4057 7.86641 22.2661 2.93512C26.9531 2.10879 34.6124 4.83032 36.3423 9.73057H40.9418C40.6214 7.45656 39.497 5.40228 37.9531 3.75019C33.5961 -0.912146 26.5729 -1.27709 22.2661 2.93512C18.4141 6.7027 18.0399 12.8557 21.1214 17.4491C24.2923 22.1758 29.8574 24.0399 34.8496 20.9083C34.7549 21.5067 34.4858 22.06 34.0797 22.497C35.0362 22.4429 35.6019 22.4312 36.502 21.9481C38.7254 20.7553 40.6906 17.6815 40.8703 14.9419H36.6639C36.7009 16.2529 36.6063 17.4748 35.5699 18.7418C37.0349 13.4748 31.9676 9.34281 27.5978 7.66704C28.6069 8.3392 29.5511 9.10778 30.4185 9.96183C32.905 12.0599 35.2439 14.8837 34.1326 17.4722C33.1168 19.8386 29.1931 20.4199 26.6731 17.3767Z" fill="white"/>
<path fill-rule="evenodd" clip-rule="evenodd" d="M7.735 36.683V33.1312H4.21598V34.4238H6.32982V36.0146C6.07779 36.2099 5.78076 36.3649 5.43814 36.4837C5.09566 36.6007 4.72764 36.659 4.33408 36.659C3.90892 36.659 3.5251 36.5823 3.18262 36.4293C2.84014 36.2763 2.54508 36.0629 2.29686 35.7933C2.04893 35.5233 1.85815 35.2033 1.72424 34.8305C1.59032 34.4602 1.52358 34.0554 1.52358 33.6205C1.52358 33.2097 1.59244 32.8211 1.73002 32.4588C1.86789 32.0943 2.05683 31.7761 2.29686 31.5021C2.53704 31.2284 2.82039 31.0108 3.1472 30.8539C3.47387 30.6968 3.82623 30.6183 4.20412 30.6183C4.46405 30.6183 4.7021 30.6405 4.91871 30.6847C5.13503 30.729 5.334 30.7895 5.51504 30.8659C5.69595 30.9424 5.86923 31.0372 6.03461 31.1498C6.19986 31.2626 6.36129 31.3875 6.51877 31.5245L7.4398 30.4007C7.22743 30.2157 7.00885 30.0525 6.78448 29.9115C6.56011 29.7706 6.32206 29.6518 6.07003 29.5551C5.81815 29.4585 5.54454 29.384 5.24933 29.3316C4.95399 29.2793 4.62534 29.2531 4.26311 29.2531C3.64123 29.2531 3.0686 29.3698 2.54508 29.6034C2.02127 29.837 1.57057 30.1532 1.19281 30.5519C0.814916 30.9505 0.521688 31.4156 0.313125 31.9471C0.104281 32.4788 0 33.0426 0 33.6386C0 34.2588 0.102447 34.8347 0.307058 35.3664C0.51181 35.8979 0.801088 36.3589 1.17517 36.7497C1.54912 37.1403 1.99983 37.4462 2.5273 37.6677C3.05477 37.8893 3.64123 38 4.28681 38C4.6489 38 4.99547 37.9656 5.32595 37.8974C5.65672 37.8289 5.96575 37.7342 6.25291 37.6134C6.5405 37.4926 6.80804 37.3515 7.05612 37.1905C7.30405 37.0294 7.53039 36.8602 7.735 36.683ZM16.3646 29.3378H15.0185L11.3812 37.855H12.8692L13.7195 35.8133H17.6283L18.4669 37.855H20.0021L16.3646 29.3378ZM17.097 34.4965H14.2509L15.6681 31.1136L17.097 34.4965ZM30.8991 37.855L28.6671 34.6535C28.9584 34.5728 29.2241 34.4581 29.4643 34.3091C29.7044 34.1601 29.911 33.9788 30.0843 33.7654C30.2575 33.552 30.3933 33.3065 30.4917 33.0286C30.5901 32.7507 30.6393 32.4345 30.6393 32.0801C30.6393 31.6693 30.5685 31.2968 30.4268 30.9627C30.285 30.6284 30.0823 30.3465 29.8186 30.1169C29.5549 29.8872 29.232 29.7102 28.8502 29.5854C28.4683 29.4605 28.0413 29.3981 27.5689 29.3981H23.8845V37.855H25.3251V34.9072H27.1496L29.1868 37.855H30.8991ZM29.1631 32.1586C29.1631 32.5956 29.0096 32.944 28.7006 33.2018C28.3937 33.4614 27.9782 33.5903 27.4567 33.5903H25.3251V30.739H27.4448C27.9901 30.739 28.4133 30.8578 28.7124 31.0976C29.0136 31.3352 29.1631 31.6895 29.1631 32.1586ZM42.3628 33.6145C42.3628 33.0185 42.2566 32.4627 42.0442 31.9471C41.8315 31.4318 41.5303 30.9847 41.1407 30.6063C40.7509 30.2276 40.2865 29.9316 39.7472 29.7182C39.208 29.5048 38.6153 29.3981 37.9699 29.3981H34.8877V37.855H37.9699C38.6153 37.855 39.208 37.7462 39.7472 37.5288C40.2865 37.3114 40.7509 37.0133 41.1407 36.6349C41.5303 36.2562 41.8315 35.8073 42.0442 35.2877C42.2566 34.7683 42.3628 34.2105 42.3628 33.6145ZM40.8395 33.6386C40.8395 34.0595 40.7708 34.4461 40.6328 34.7964C40.4952 35.1488 40.3002 35.4529 40.0523 35.7065C39.8042 35.9623 39.5011 36.1597 39.1469 36.3026C38.7907 36.4435 38.3969 36.5139 37.962 36.5139H36.3283V30.739H37.962C38.3969 30.739 38.7907 30.8116 39.1469 30.9565C39.5011 31.1035 39.8042 31.305 40.0523 31.5646C40.3002 31.8224 40.4952 32.1285 40.6328 32.4809C40.7708 32.8312 40.8395 33.2178 40.8395 33.6386ZM46.6705 37.855H48.1111V29.3981H46.6705V37.855ZM58.5594 35.2454L54.1408 29.3981H52.7966V37.855H54.2372V31.8384L58.7856 37.855H60V29.3981H58.5594V35.2454Z" fill="white"/>
</svg>
