<svg width="62" height="38" viewBox="0 0 62 38" fill="none" xmlns="http://www.w3.org/2000/svg">
<path d="M0.5 10C0.5 4.75329 4.75329 0.5 10 0.5H52C57.2467 0.5 61.5 4.7533 61.5 10V28C61.5 33.2467 57.2467 37.5 52 37.5H10C4.7533 37.5 0.5 33.2467 0.5 28V10Z" fill="#1C1C1E" stroke="#F2F2F7"/>
<rect width="24" height="24" transform="translate(19 7)" fill="#1C1C1E"/>
<path d="M23.929 20.2069L26.05 22.3279L27.464 20.9139L25.344 18.7929L27.464 16.6719L30.293 19.4999L31.707 18.0859L28.88 15.2569L31 13.1359L33.121 15.2569L34.536 13.8429L32.414 11.7219L35.243 8.89288C35.4305 8.70541 35.6848 8.6001 35.95 8.6001C36.2152 8.6001 36.4695 8.70541 36.657 8.89288L41.607 13.8429C41.7945 14.0304 41.8998 14.2847 41.8998 14.5499C41.8998 14.815 41.7945 15.0694 41.607 15.2569L26.757 30.1069C26.5695 30.2944 26.3152 30.3997 26.05 30.3997C25.7848 30.3997 25.5305 30.2944 25.343 30.1069L20.393 25.1569C20.2055 24.9694 20.1002 24.715 20.1002 24.4499C20.1002 24.1847 20.2055 23.9304 20.393 23.7429L23.929 20.2069Z" fill="#F2F2F7"/>
</svg>
