<svg width="20" height="18" viewBox="0 0 20 18" fill="none" xmlns="http://www.w3.org/2000/svg">
<path d="M14.1081 0C17.064 0 19.4595 2.43243 19.4595 5.83784C19.4595 12.6486 12.1622 16.5405 9.72973 18C7.80519 16.8451 2.83719 14.1694 0.844541 9.72973H5.41557L6.32432 8.21578L9.24324 13.0806L11.2534 9.72973H14.5946V7.78378H10.152L9.24324 9.29773L6.32432 4.43287L4.31416 7.78378H0.204324C0.072 7.164 0 6.51503 0 5.83784C0 2.43243 2.43243 0 5.35135 0C7.16108 0 8.75676 0.972973 9.72973 1.94595C10.7027 0.972973 12.2984 0 14.1081 0Z" fill="#000"/>
</svg>
