<svg width="62" height="38" viewBox="0 0 62 38" fill="none" xmlns="http://www.w3.org/2000/svg">
<path d="M0.5 10C0.5 4.75329 4.75329 0.5 10 0.5H52C57.2467 0.5 61.5 4.7533 61.5 10V28C61.5 33.2467 57.2467 37.5 52 37.5H10C4.7533 37.5 0.5 33.2467 0.5 28V10Z" stroke="#636366"/>
<path d="M33.0266 14.001L28.9726 14.001C28.8406 15.203 28.2276 16.195 27.2326 17.278C27.1196 17.4 26.4006 18.145 26.3156 18.251C25.6093 19.1334 25.1666 20.1973 25.0385 21.3202C24.9103 22.4432 25.102 23.5795 25.5913 24.5983C26.0807 25.6171 26.8479 26.4769 27.8045 27.0788C28.7611 27.6807 29.8683 28.0002 30.9985 28.0004C32.1287 28.0007 33.236 27.6817 34.1929 27.0802C35.1498 26.4787 35.9173 25.6192 36.4071 24.6006C36.8969 23.582 37.089 22.4458 36.9614 21.3228C36.8337 20.1998 36.3915 19.1357 35.6856 18.253C35.5996 18.146 34.8786 17.4 34.7676 17.279C33.7716 16.195 33.1586 15.203 33.0266 14.001ZM28.9996 12.001H32.9996V11.001H28.9996V12.001ZM37.2456 17.001C38.1874 18.1777 38.7776 19.5965 38.9483 21.094C39.119 22.5915 38.8632 24.1068 38.2103 25.4653C37.5575 26.8237 36.5341 27.9701 35.2582 28.7724C33.9823 29.5747 32.5057 30.0002 30.9985 30C29.4913 29.9998 28.0148 29.5738 26.7392 28.7711C25.4635 27.9684 24.4405 26.8216 23.7881 25.4629C23.1357 24.1043 22.8804 22.5889 23.0515 21.0915C23.2227 19.594 23.8134 18.1754 24.7556 16.999C25.3756 16.227 26.9996 15.001 26.9996 13.501V11.001C26.9996 10.4706 27.2103 9.96186 27.5854 9.58679C27.9604 9.21172 28.4691 9.001 28.9996 9.001H32.9996C33.53 9.001 34.0387 9.21172 34.4138 9.58679C34.7889 9.96186 34.9996 10.4706 34.9996 11.001V13.501C34.9996 15.001 36.6246 16.227 37.2456 17.001ZM29.9996 21.997H27.4996L31.9996 15.997V19.997H34.4996L29.9996 26.001V21.996V21.997Z" fill="#636366"/>
</svg>
