<svg width="20" height="20" viewBox="0 0 20 20" fill="none" xmlns="http://www.w3.org/2000/svg">
<g clip-path="url(#clip0_6736_20337)">
<path d="M2.16602 10.0001C2.16602 6.28406 4.75348 3.17246 8.22463 2.36865C7.97322 2.72565 7.7564 3.10711 7.57779 3.50797C7.20886 4.33596 7.01049 5.22978 6.9945 6.13611C6.97851 7.04243 7.14523 7.9427 7.48472 8.78319C7.82421 9.62368 8.32951 10.3872 8.97048 11.0282C9.61144 11.6691 10.3749 12.1744 11.2154 12.5139C12.0559 12.8534 12.9562 13.0201 13.8625 13.0041C14.7688 12.9881 15.6627 12.7898 16.4907 12.4208C16.8918 12.2421 17.2734 12.0252 17.6306 11.7736C16.8283 15.2456 13.7165 17.8335 10.0002 17.8335C5.67296 17.8335 2.16602 14.3264 2.16602 10.0001Z" fill="#3A3A3C" stroke="#1C1C1E"/>
</g>
<defs>
<clipPath id="clip0_6736_20337">
<rect width="20" height="20" fill="white"/>
</clipPath>
</defs>
</svg>
