<svg width="30" height="30" viewBox="0 0 30 30" fill="none" xmlns="http://www.w3.org/2000/svg">
<path d="M13.7503 22.5002H9.92651C9.55525 20.909 7.88026 19.6077 7.19276 18.7502C6.01549 17.2793 5.27769 15.5058 5.06434 13.6339C4.85098 11.762 5.17076 9.86797 5.98682 8.16989C6.80289 6.47181 8.08205 5.0388 9.67695 4.03594C11.2719 3.03308 13.1176 2.50116 15.0016 2.50146C16.8856 2.50177 18.7312 3.03427 20.3258 4.03765C21.9204 5.04102 23.1991 6.47444 24.0146 8.17278C24.8301 9.87112 25.1493 11.7653 24.9353 13.6371C24.7214 15.5089 23.983 17.2822 22.8053 18.7527C22.1178 19.609 20.4453 20.9102 20.074 22.5002H16.2503V16.2502H13.7503V22.5002ZM20.0003 25.0002V26.2502C20.0003 26.9133 19.7369 27.5491 19.268 28.018C18.7992 28.4868 18.1633 28.7502 17.5003 28.7502H12.5003C11.8372 28.7502 11.2013 28.4868 10.7325 28.018C10.2636 27.5491 10.0003 26.9133 10.0003 26.2502V25.0002H20.0003Z" fill="#000"/>
</svg>
