<svg width="16" height="21" viewBox="0 0 16 21" fill="none" xmlns="http://www.w3.org/2000/svg">
<path d="M10.0266 5.001L5.97258 5.001C5.84058 6.203 5.22758 7.195 4.23258 8.278C4.11958 8.4 3.40058 9.145 3.31558 9.251C2.6093 10.1334 2.1666 11.1973 2.03846 12.3202C1.91033 13.4432 2.10198 14.5795 2.59134 15.5983C3.08069 16.6171 3.84785 17.4769 4.80447 18.0788C5.7611 18.6807 6.86827 19.0002 7.9985 19.0004C9.12873 19.0007 10.236 18.6817 11.1929 18.0802C12.1498 17.4787 12.9173 16.6192 13.4071 15.6006C13.8969 14.582 14.089 13.4458 13.9614 12.3228C13.8337 11.1998 13.3915 10.1357 12.6856 9.253C12.5996 9.146 11.8786 8.4 11.7676 8.279C10.7716 7.195 10.1586 6.203 10.0266 5.001ZM5.99958 3.001H9.99958L9.99958 2.001H5.99958V3.001ZM14.2456 8.001C15.1874 9.17771 15.7776 10.5965 15.9483 12.094C16.119 13.5915 15.8632 15.1068 15.2103 16.4653C14.5575 17.8237 13.5341 18.9701 12.2582 19.7724C10.9823 20.5747 9.5057 21.0002 7.9985 21C6.4913 20.9998 5.01483 20.5738 3.73917 19.7711C2.4635 18.9684 1.44054 17.8216 0.788126 16.4629C0.135708 15.1043 -0.119627 13.5889 0.0515366 12.0915C0.2227 10.594 0.813396 9.17541 1.75558 7.999C2.37558 7.227 3.99958 6.001 3.99958 4.501V2.001C3.99958 1.47057 4.2103 0.961863 4.58537 0.58679C4.96044 0.211718 5.46915 0.00100327 5.99958 0.00100327H9.99958C10.53 0.00100327 11.0387 0.211718 11.4138 0.58679C11.7889 0.961863 11.9996 1.47057 11.9996 2.001L11.9996 4.501C11.9996 6.001 13.6246 7.227 14.2456 8.001ZM6.99958 12.997H4.49958L8.99958 6.997L8.99958 10.997H11.4996L6.99958 17.001L6.99958 12.996V12.997Z" fill="#000"/>
</svg>
