<svg width="30" height="30" viewBox="0 0 30 30" fill="none" xmlns="http://www.w3.org/2000/svg">
<path fill-rule="evenodd" clip-rule="evenodd" d="M25.625 3.125V5.625C25.625 17.6587 18.9087 23.125 10.625 23.125C9.6787 22.9673 8.899 22.6811 8.26028 22.4466C6.36784 21.752 5.71286 21.5116 5.62875 26.4125L5.625 26.875H3.125C3.125 25.1712 3.27 23.625 3.5575 22.21C3.27 20.5925 3.125 18.3975 3.125 15.625C3.125 8.72125 8.72125 3.125 15.625 3.125C16.3819 3.125 17.1389 3.23959 17.9652 3.36469C19.8681 3.65276 22.1389 3.99653 25.625 3.125ZM18.75 11.255H15.625V6.25L10 13.755H13.125V18.755L18.75 11.255Z" fill="#000"/>
</svg>
