<svg width="24" height="24" viewBox="0 0 24 24" fill="none" xmlns="http://www.w3.org/2000/svg">
<path d="M5 4.69663L7.65119 7.34876L7.65134 7.34892C8.33027 8.0269 8.75 8.96399 8.75 10C8.75 12.0719 7.07193 13.75 5 13.75C2.92807 13.75 1.25 12.0719 1.25 10C1.25 8.96399 1.66973 8.0269 2.34865 7.34892L2.34881 7.34876L5 4.69663ZM19 4.69663L21.6512 7.34876L21.6513 7.34892C22.3303 8.0269 22.75 8.96399 22.75 10C22.75 12.0719 21.0719 13.75 19 13.75C16.9281 13.75 15.25 12.0719 15.25 10C15.25 8.96399 15.6697 8.0269 16.3487 7.34892L16.3488 7.34876L19 4.69663Z" fill="#F5D205" stroke="#1C1C1E" stroke-width="0.5" />
<path d="M11.828 9.843L14.656 12.672C15.38 13.395 15.828 14.395 15.828 15.5C15.828 17.71 14.038 19.5 11.828 19.5C9.618 19.5 7.828 17.71 7.828 15.5C7.828 14.395 8.276 13.395 9 12.672L11.828 9.843Z" fill="#F5D205" stroke="#1C1C1E" stroke-width="0.5" />
</svg>
