<svg width="62" height="38" viewBox="0 0 62 38" fill="none" xmlns="http://www.w3.org/2000/svg">
<path d="M0.5 10C0.5 4.75329 4.75329 0.5 10 0.5H52C57.2467 0.5 61.5 4.7533 61.5 10V28C61.5 33.2467 57.2467 37.5 52 37.5H10C4.7533 37.5 0.5 33.2467 0.5 28V10Z" stroke="#636366"/>
<path d="M24 11.343L26.828 14.172C27.552 14.895 28 15.895 28 17C28 19.21 26.21 21 24 21C21.79 21 20 19.21 20 17C20 15.895 20.448 14.895 21.172 14.172L24 11.343ZM38 11.343L40.828 14.172C41.552 14.895 42 15.895 42 17C42 19.21 40.21 21 38 21C35.79 21 34 19.21 34 17C34 15.895 34.448 14.895 35.172 14.172L38 11.343Z" fill="#636366"/>
<path d="M30.828 16.843L33.656 19.672C34.38 20.395 34.828 21.395 34.828 22.5C34.828 24.71 33.038 26.5 30.828 26.5C28.618 26.5 26.828 24.71 26.828 22.5C26.828 21.395 27.276 20.395 28 19.672L30.828 16.843Z" fill="#636366"/>
</svg>
