<svg width="131" height="25" viewBox="0 0 131 25" fill="none" xmlns="http://www.w3.org/2000/svg">
<path d="M0.5 22V4.37573C0.721732 4.31321 1.04573 4.22425 1.46701 4.11478C2.33935 3.8881 3.62872 3.57351 5.29087 3.22365C8.61531 2.5239 13.4301 1.6833 19.3812 1.1228C31.2849 0.00166733 47.7265 0.00203125 65.8801 4.48541C84.1676 9.00186 100.476 9.00179 112.214 7.87269C118.083 7.30809 122.811 6.46103 126.074 5.75429C127.706 5.4009 128.972 5.08256 129.831 4.85207C130.092 4.78216 130.315 4.72032 130.5 4.66805V22C130.5 23.3807 129.381 24.5 128 24.5H3C1.61929 24.5 0.5 23.3807 0.5 22Z" fill="#F5D205" stroke="#1C1C1E"/>
</svg>
