<svg width="60" height="60" viewBox="0 0 60 60" fill="none" xmlns="http://www.w3.org/2000/svg">
<path d="M46.968 32.083C43.8473 36.4355 39.6039 39.5 35 39.5H32.5V40V40.5H35H57V52.5C57 53.1112 56.8661 53.43 56.5684 53.6611C56.218 53.9331 55.561 54.1501 54.3194 54.289C52.2779 54.5174 48.9552 54.5122 43.5929 54.5037C42.4846 54.5019 41.2892 54.5 40 54.5H20C18.7108 54.5 17.5154 54.5019 16.4071 54.5037C11.0448 54.5122 7.72209 54.5174 5.68059 54.289C4.43904 54.1501 3.78197 53.9331 3.43159 53.6611C3.13389 53.43 3 53.1112 3 52.5V40.5H27.5H28V40V30C28 20.6111 35.6111 13 45 13H52V17.5C52 22.2133 50.0832 27.7383 46.968 32.083ZM13.75 10.5C19.7735 10.5 25.1141 13.416 28.4395 17.9179C25.9603 21.3034 24.5 25.4833 24.5 30V32H23.75C13.6711 32 5.5 23.8289 5.5 13.75V10.5H13.75Z" stroke="#F2F2F7"/>
<path opacity="0.45" d="M52.5 12.5V17.5C52.5 27.165 44.665 40 35 40H32.5H57.5V52.5C57.5 55.2625 55 55 40 55H20C5 55 2.5 55.2625 2.5 52.5V40H27.5V30C27.5 20.335 35.335 12.5 45 12.5H52.5ZM13.75 10C20.0725 10 25.6625 13.1275 29.06 17.9225C26.51 21.275 25 25.4625 25 30V32.5H23.75C13.395 32.5 5 24.105 5 13.75V10H13.75Z" fill="#F2F2F7"/>
</svg>
