<svg width="48" height="48" viewBox="0 0 48 48" fill="none" xmlns="http://www.w3.org/2000/svg">
<path d="M-6.10352e-05 12.0108V23.0001C5.95349 22.7454 10.7346 17.9643 10.9893 12.0108H-6.10352e-05Z" fill="white"/>
<path d="M22.9893 35.0001V24.0107C17.0358 24.2654 12.2547 29.0465 12 35.0001H22.9893Z" fill="white"/>
<path d="M11.9999 23.0001V12.0107C17.9535 12.2654 22.7346 17.0465 22.9893 23.0001H11.9999Z" fill="white"/>
<path d="M10.9893 24.0108V35.0001C5.03577 34.7454 0.2547 29.9643 0 24.0108H10.9893Z" fill="white"/>
<path d="M23.9999 47.9999V37.0106C29.9535 37.2653 34.7346 42.0464 34.9893 47.9999H23.9999Z" fill="white"/>
<path d="M46.9893 25.0107V36C41.0358 35.7453 36.2547 30.9642 36 25.0107H46.9893Z" fill="white"/>
<path d="M35.9999 37.0107V48C41.9535 47.7453 46.7346 42.9642 46.9893 37.0107H35.9999Z" fill="white"/>
<path d="M34.9893 35.9999V25.0106C29.0358 25.2653 24.2547 30.0464 24 35.9999H34.9893Z" fill="white"/>
<path d="M24.9999 22.9892V11.9999C30.9535 12.2546 35.7346 17.0357 35.9893 22.9892H24.9999Z" fill="white"/>
<path d="M47.9893 -6.86646e-05V10.9893C42.0358 10.7346 37.2547 5.95346 37 -6.86646e-05H47.9893Z" fill="white"/>
<path d="M36.9999 11.9999V22.9893C42.9535 22.7346 47.7346 17.9535 47.9893 11.9999H36.9999Z" fill="white"/>
<path d="M35.9893 10.9892V-0.00012207C30.0358 0.254562 25.2547 5.03568 25 10.9892H35.9893Z" fill="white"/>
</svg>
