<svg width="30" height="30" viewBox="0 0 30 30" fill="none" xmlns="http://www.w3.org/2000/svg">
<g clip-path="url(#clip0_3514_15131)">
<path fill-rule="evenodd" clip-rule="evenodd" d="M13.3319 12.42V16.608C14.2859 15.246 15.4019 13.998 16.6679 12.894C16.9919 12.612 17.3279 12.336 17.6759 12.072C18.1019 11.748 18.5459 11.436 18.9959 11.142L19.5479 11.994C18.8939 12.414 18.2759 12.87 17.6819 13.362C17.3339 13.65 16.9919 13.956 16.6679 14.268C14.0939 16.722 13.0319 18.666 12.3059 21.984H11.5799H10.5179H4.42188L5.00988 22.998H24.9899L25.5779 21.984H13.3679C13.7219 20.538 14.2319 19.152 14.8919 17.838H16.6679H17.6819H18.7499C20.2439 17.838 21.5939 17.232 22.5779 16.248C23.5619 15.264 24.1679 13.908 24.1679 12.42V7.00195H18.7499C17.6639 7.00195 16.6499 7.32595 15.7979 7.88395C15.5159 8.06995 15.2459 8.28595 14.9999 8.51995L14.9219 8.59195C13.9439 9.57595 13.3319 10.932 13.3319 12.42ZM7.42188 16.248C8.40588 17.232 9.75588 17.838 11.2499 17.838H12.1919V12.42C12.1919 12.084 12.2159 11.748 12.2699 11.418C12.3059 11.184 12.3539 10.95 12.4139 10.722C12.7079 9.62995 13.2839 8.62795 14.0879 7.81195C13.2599 7.29595 12.2879 7.00195 11.2499 7.00195H5.83188V12.42C5.83188 13.908 6.43788 15.264 7.42188 16.248Z" fill="#000"/>
</g>
<defs>
<clipPath id="clip0_3514_15131">
<rect width="30" height="30" fill="white"/>
</clipPath>
</defs>
</svg>
