<svg width="66" height="50" viewBox="0 0 66 50" fill="none" xmlns="http://www.w3.org/2000/svg">
<path opacity="0.75" fill-rule="evenodd" clip-rule="evenodd" d="M27.7948 16.9382V30.0218C30.7704 25.7642 34.2573 21.8677 38.2052 18.4246C39.2195 17.5344 40.2672 16.6779 41.3401 15.8549C42.6728 14.8304 44.0559 13.8562 45.4724 12.9409L47.1824 15.6114C45.1539 16.9214 43.2177 18.349 41.3736 19.8858C40.284 20.7927 39.2195 21.7333 38.2052 22.7074C30.1753 30.3913 26.856 36.4545 24.5928 46.8257H22.3213H19.0188H0L1.82728 50H64.1727L66 46.8257H27.8954C29.0018 42.3161 30.6111 37.9745 32.6647 33.8764H38.2052H41.3736H44.7013C49.3533 33.8764 53.5779 31.9701 56.6457 28.8965C59.7051 25.8314 61.6078 21.5905 61.6078 16.9382V0H44.7013C41.315 0 38.1549 1.01612 35.4978 2.75445C34.601 3.34229 33.7711 4.00571 33 4.74471L32.7653 4.97985C29.6975 8.04501 27.7948 12.2859 27.7948 16.9382ZM9.35433 28.8965C12.4221 31.9701 16.6467 33.8764 21.2987 33.8764H24.2324V16.9382C24.2324 15.8801 24.3162 14.8304 24.4755 13.8058C24.5845 13.0668 24.7437 12.3362 24.9365 11.6224C25.8501 8.22136 27.6439 5.08902 30.1585 2.53611C27.5768 0.932146 24.5425 0 21.2987 0H4.39218V16.9382C4.39218 21.5905 6.29489 25.8314 9.35433 28.8965Z" fill="#F2F2F7"/>
</svg>
