<svg width="31" height="30" viewBox="0 0 31 30" fill="none" xmlns="http://www.w3.org/2000/svg">
<path fill-rule="evenodd" clip-rule="evenodd" d="M26.3594 12.5H21.5354V10H26.3594V12.5ZM8.85938 16.25H3.85938V13.75H8.85938V16.25ZM14.5754 16.25H9.75138V13.75H14.5754V16.25ZM8.85938 12.5H3.85938V10H8.85938V12.5ZM20.4674 16.25H15.6434V13.75H20.4674V16.25ZM14.5754 12.5H9.75138V10H14.5754V12.5ZM20.4674 12.5H15.6434V10H20.4674V12.5ZM26.3594 16.25H21.5354V13.75H26.3594V16.25Z" fill="#f7f7fa"/>
<path d="M11.6893 20.7339H13.4773H25.6873L25.0993 21.7479H5.11925L4.53125 20.7339H10.6273H11.6893Z" fill="#f7f7fa"/>
</svg>
