<svg width="66" height="50" viewBox="0 0 66 50" fill="none" xmlns="http://www.w3.org/2000/svg">
<path fill-rule="evenodd" clip-rule="evenodd" d="M27.7964 16.9355V30.0263C30.7725 25.7689 34.2541 21.868 38.2036 18.4171C39.2144 17.5356 40.2626 16.6729 41.3483 15.8477C42.6773 14.835 44.0624 13.8597 45.4663 12.9407L47.1883 15.6039C45.148 16.9167 43.2201 18.3421 41.367 19.88C40.2813 20.7802 39.2144 21.7367 38.2036 22.7119C30.1736 30.3826 26.8605 36.4591 24.5956 46.8305H22.3307H19.0176H0L1.83437 50H64.1656L66 46.8305H27.9087C29.013 42.3106 30.6041 37.9782 32.6631 33.871H38.2036H41.367H44.6988C49.3596 33.871 53.5712 31.9767 56.641 28.901C59.7107 25.8252 61.6012 21.5866 61.6012 16.9355V0H44.6988C41.3108 0 38.1475 1.01275 35.4895 2.75694C34.6098 3.33833 33.7674 4.0135 33 4.74494L32.7567 4.96999C29.7056 8.04576 27.7964 12.2843 27.7964 16.9355Z" fill="#89BD2B"/>
<path fill-rule="evenodd" clip-rule="evenodd" d="M8.08237 28.901C11.1521 31.9767 15.3637 33.871 20.0245 33.871H22.9633V16.9355C22.9633 15.8852 23.0381 14.835 23.2066 13.8035C23.3189 13.072 23.4686 12.3406 23.6558 11.6279C24.573 8.21455 26.3699 5.08252 28.8782 2.53188C26.2951 0.91898 23.2627 0 20.0245 0H3.12207V16.9355C3.12207 21.5866 5.0126 25.8252 8.08237 28.901Z" fill="#89BC2B"/>
</svg>
