<svg width="30" height="30" viewBox="0 0 30 30" fill="none" xmlns="http://www.w3.org/2000/svg">
<g clip-path="url(#clip0_3514_15123)">
<path fill-rule="evenodd" clip-rule="evenodd" d="M9.23436 12.0541V17.0581C10.3744 15.4261 11.7124 13.9381 13.2184 12.6241C13.6084 12.2821 14.0104 11.9581 14.4244 11.6401C14.9344 11.2501 15.4624 10.8781 16.0084 10.5241L16.6624 11.5441C15.8824 12.0481 15.1384 12.5941 14.4364 13.1821C14.0164 13.5241 13.6084 13.8901 13.2184 14.2621C9.91236 17.4181 8.69436 19.8661 7.81836 24.4201H9.06636C9.48036 22.3561 10.1704 20.3761 11.1004 18.5281H13.2184H14.4364H15.7084C17.4904 18.5281 19.1104 17.8021 20.2804 16.6261C21.4564 15.4501 22.1824 13.8361 22.1824 12.0541V5.58008H15.7084C14.4124 5.58008 13.2004 5.97008 12.1864 6.63608C11.8444 6.85808 11.5204 7.11608 11.2264 7.39808L11.1364 7.48208C9.96636 8.65808 9.23436 10.2781 9.23436 12.0541Z" fill="#F2F2F7"/>
</g>
<defs>
<clipPath id="clip0_3514_15123">
<rect width="30" height="30" fill="white"/>
</clipPath>
</defs>
</svg>
