<svg width="48" height="48" viewBox="0 0 48 48" fill="none" xmlns="http://www.w3.org/2000/svg">
<path d="M-6.10352e-05 12.0107V23C5.95349 22.7453 10.7346 17.9642 10.9893 12.0107H-6.10352e-05Z" fill="#636366"/>
<path d="M22.9893 35V24.0107C17.0358 24.2654 12.2547 29.0465 12 35H22.9893Z" fill="#636366"/>
<path d="M11.9999 23V12.0107C17.9535 12.2654 22.7346 17.0465 22.9893 23H11.9999Z" fill="#636366"/>
<path d="M10.9893 24.0107V35C5.03577 34.7453 0.2547 29.9642 0 24.0107H10.9893Z" fill="#636366"/>
<path d="M23.9999 48V37.0107C29.9535 37.2654 34.7346 42.0465 34.9893 48H23.9999Z" fill="#636366"/>
<path d="M46.9893 25.0107V36C41.0358 35.7453 36.2547 30.9642 36 25.0107H46.9893Z" fill="#636366"/>
<path d="M35.9999 37.0107V48C41.9535 47.7453 46.7346 42.9642 46.9893 37.0107H35.9999Z" fill="#636366"/>
<path d="M34.9893 36V25.0107C29.0358 25.2654 24.2547 30.0465 24 36H34.9893Z" fill="#636366"/>
<path d="M24.9999 22.9893V12C30.9535 12.2547 35.7346 17.0358 35.9893 22.9893H24.9999Z" fill="#636366"/>
<path d="M47.9893 -7.62939e-06V10.9893C42.0358 10.7346 37.2547 5.95352 37 -7.62939e-06H47.9893Z" fill="#636366"/>
<path d="M36.9999 12V22.9893C42.9535 22.7346 47.7346 17.9535 47.9893 12H36.9999Z" fill="#636366"/>
<path d="M35.9893 10.9893V0C30.0358 0.254684 25.2547 5.0358 25 10.9893H35.9893Z" fill="#636366"/>
</svg>
